<?xml version="1.0" standalone="no"?>
<!DOCTYPE svg PUBLIC "-//W3C//DTD SVG 20010904//EN"
 "http://www.w3.org/TR/2001/REC-SVG-20010904/DTD/svg10.dtd">
<svg version="1.0" xmlns="http://www.w3.org/2000/svg"
 width="700.000000pt" height="700.000000pt" viewBox="0 0 700.000000 700.000000"
 preserveAspectRatio="xMidYMid meet">
<metadata>
Created by potrace 1.11, written by Peter Selinger 2001-2013
</metadata>
<g transform="translate(0.000000,700.000000) scale(0.100000,-0.100000)"
fill="#000000" stroke="none">
<path d="M3278 6995 c-1 -1 -41 -5 -88 -9 -87 -7 -105 -9 -225 -27 -116 -18
-123 -19 -192 -35 -234 -53 -348 -87 -536 -160 -395 -154 -748 -369 -1062
-648 -358 -318 -681 -756 -860 -1166 -25 -58 -50 -114 -55 -125 -45 -93 -150
-427 -176 -560 -2 -11 -10 -54 -19 -95 -29 -147 -36 -200 -52 -370 -15 -165
-8 -592 12 -711 2 -13 6 -46 9 -74 9 -78 23 -156 51 -285 30 -141 110 -393
173 -551 50 -125 156 -337 226 -453 36 -60 66 -113 66 -117 0 -4 3 -9 8 -11 4
-2 29 -36 57 -77 27 -41 68 -99 92 -130 105 -138 146 -186 289 -333 183 -188
350 -327 571 -474 77 -52 145 -94 149 -94 4 0 15 -6 23 -14 32 -28 314 -166
448 -219 278 -111 562 -188 818 -222 22 -2 56 -7 75 -10 186 -26 698 -27 838
0 16 3 104 15 147 20 194 25 552 129 799 232 122 52 338 160 394 198 20 14 40
25 45 25 4 0 13 5 20 10 7 6 62 44 124 84 245 163 499 384 676 591 33 39 63
72 66 75 5 4 54 65 83 105 4 6 18 24 31 40 142 181 329 510 432 760 68 164
151 426 181 570 16 79 54 301 59 350 4 33 9 71 11 85 9 46 11 524 4 605 -12
128 -21 202 -25 227 -3 13 -8 43 -11 68 -18 134 -89 411 -152 592 -400 1146
-1400 2022 -2586 2264 -67 14 -137 27 -156 29 -19 3 -46 7 -60 10 -13 2 -52 7
-86 11 -33 3 -74 8 -90 10 -32 5 -540 14 -546 9z m537 -2347 c0 -324 3 -588 7
-588 4 0 29 13 55 28 67 40 300 176 346 201 21 12 98 56 170 98 349 201 440
253 446 253 7 0 21 -22 59 -89 24 -45 170 -298 238 -414 l34 -58 -43 -25 c-57
-34 -430 -249 -492 -283 -27 -16 -96 -56 -153 -90 -57 -33 -105 -61 -107 -61
-3 0 -161 -91 -203 -117 -27 -17 -26 -18 58 -65 25 -14 164 -94 310 -178 146
-84 284 -163 307 -176 23 -13 93 -54 155 -91 62 -36 126 -73 141 -81 l28 -14
-28 -46 c-15 -26 -32 -57 -38 -69 -5 -13 -13 -23 -17 -23 -5 0 -8 -5 -8 -10 0
-10 -212 -381 -232 -406 -7 -10 -86 28 -198 96 -53 32 -223 130 -226 130 -2 0
-32 17 -66 38 -35 21 -88 52 -118 69 -30 17 -137 78 -237 136 -144 83 -182
102 -185 89 -2 -10 -3 -273 -2 -585 0 -341 -3 -570 -9 -574 -7 -4 -348 -7
-589 -4 l-56 1 -1 578 c0 317 0 582 0 589 -1 13 -18 4 -546 -302 -198 -114
-387 -223 -420 -241 l-60 -33 -125 217 c-69 119 -142 246 -162 283 l-38 68 58
32 c31 18 196 113 365 211 170 98 310 178 313 178 3 0 22 12 41 28 20 15 39
27 42 26 3 -1 15 4 26 11 11 7 55 33 98 58 l79 44 -59 35 c-32 20 -182 106
-333 193 -151 87 -313 181 -360 208 -47 28 -110 64 -140 80 -30 17 -67 38 -82
49 -14 10 -31 18 -37 18 -17 0 -15 6 39 97 28 47 50 87 50 89 0 2 16 28 35 58
19 30 35 57 35 60 0 3 19 38 43 78 24 40 59 99 77 131 19 31 38 57 42 57 4 0
29 -13 55 -29 39 -22 392 -227 554 -319 19 -11 63 -36 99 -57 36 -21 81 -46
100 -57 19 -11 72 -42 118 -69 45 -27 86 -49 90 -49 4 0 6 260 5 577 -1 318
-1 583 1 588 3 7 111 11 327 10 l324 0 0 -587z"/>
</g>
</svg>
